<svg width="268" height="45" viewBox="0 0 268 45" fill="none" xmlns="http://www.w3.org/2000/svg">
    <path d="M29.74 25.02C29.74 25.18 29.7 25.36 29.62 25.56C29.54 25.72 29.46 25.88 29.38 26.04C28.54 27.6 27.4 28.92 25.96 30C24.56 31.04 23 31.84 21.28 32.4C19.56 32.96 17.84 33.24 16.12 33.24C14.64 33.24 13.02 33 11.26 32.52C9.5 32.04 7.98 31.36 6.7 30.48C4.62 28.96 3.08 27.08 2.08 24.84C1.12 22.6 0.64 20.22 0.64 17.7C0.64 14.58 1.24 11.74 2.44 9.18C3.64 6.58 5.38 4.5 7.66 2.94C9.98 1.38 12.78 0.599999 16.06 0.599999C17.26 0.599999 18.4 0.779999 19.48 1.14C19.8 1.22 20.3 1.44 20.98 1.8C21.7 2.12 22.4 2.42 23.08 2.7C23.76 2.98 24.18 3.12 24.34 3.12C24.78 3.12 25.2 2.96 25.6 2.64C26.04 2.28 26.38 2.1 26.62 2.1C26.86 2.1 26.98 2.26 26.98 2.58C27.06 2.98 27.1 3.42 27.1 3.9C27.1 4.34 27.12 4.78 27.16 5.22C27.2 6.18 27.26 7.14 27.34 8.1C27.46 9.06 27.52 10.02 27.52 10.98C27.52 11.5 27.44 11.96 27.28 12.36C27.12 12.76 26.74 12.96 26.14 12.96C25.74 12.96 25.44 12.86 25.24 12.66C25.04 12.46 24.9 12.2 24.82 11.88C24.34 10.44 23.84 9.04 23.32 7.68C22.84 6.28 22.02 5.06 20.86 4.02C20.42 3.58 19.78 3.18 18.94 2.82C18.14 2.42 17.42 2.22 16.78 2.22C15.1 2.22 13.72 2.76 12.64 3.84C11.56 4.92 10.7 6.26 10.06 7.86C9.42 9.46 8.96 11.12 8.68 12.84C8.44 14.52 8.32 16 8.32 17.28C8.32 18.48 8.46 19.88 8.74 21.48C9.02 23.04 9.48 24.56 10.12 26.04C10.76 27.48 11.6 28.7 12.64 29.7C13.68 30.66 14.98 31.14 16.54 31.14C18.02 31.14 19.52 30.82 21.04 30.18C22.56 29.54 23.84 28.7 24.88 27.66C25.2 27.34 25.52 27 25.84 26.64C26.2 26.28 26.52 25.9 26.8 25.5C26.92 25.3 27.04 25.12 27.16 24.96C27.28 24.76 27.42 24.58 27.58 24.42C27.9 24.1 28.22 23.94 28.54 23.94C28.86 23.94 29.14 24.04 29.38 24.24C29.62 24.44 29.74 24.7 29.74 25.02ZM56.7423 17.22C56.7423 15.9 56.6423 14.4 56.4423 12.72C56.2823 11 55.9223 9.34 55.3623 7.74C54.8023 6.14 53.9823 4.82 52.9023 3.78C51.8623 2.7 50.4423 2.16 48.6423 2.16C47.0023 2.16 45.6823 2.68 44.6823 3.72C43.6823 4.76 42.9023 6.06 42.3423 7.62C41.8223 9.18 41.4623 10.8 41.2623 12.48C41.0623 14.12 40.9623 15.54 40.9623 16.74C40.9623 18.06 41.0423 19.58 41.2023 21.3C41.4023 22.98 41.7823 24.62 42.3423 26.22C42.9023 27.82 43.7223 29.14 44.8023 30.18C45.8823 31.22 47.3223 31.74 49.1223 31.74C50.8023 31.74 52.1423 31.24 53.1423 30.24C54.1823 29.2 54.9623 27.92 55.4823 26.4C56.0023 24.84 56.3423 23.24 56.5023 21.6C56.6623 19.92 56.7423 18.46 56.7423 17.22ZM64.9023 17.52C64.9023 20.6 64.2023 23.34 62.8023 25.74C61.4023 28.1 59.4823 29.96 57.0423 31.32C54.6423 32.68 51.9023 33.36 48.8223 33.36C45.7423 33.36 43.0223 32.64 40.6623 31.2C38.3023 29.76 36.4423 27.82 35.0823 25.38C33.7623 22.94 33.1023 20.2 33.1023 17.16C33.1023 14 33.7623 11.18 35.0823 8.7C36.4023 6.18 38.2623 4.2 40.6623 2.76C43.0623 1.28 45.8623 0.539999 49.0623 0.539999C52.5823 0.539999 55.5023 1.26 57.8223 2.7C60.1823 4.1 61.9423 6.08 63.1023 8.64C64.3023 11.16 64.9023 14.12 64.9023 17.52ZM83.9894 27.96C83.9894 29.32 83.5494 30.4 82.6694 31.2C81.7894 32 80.6694 32.4 79.3094 32.4C77.9494 32.4 76.8294 32 75.9494 31.2C75.0694 30.4 74.6294 29.32 74.6294 27.96C74.6294 26.56 75.0694 25.48 75.9494 24.72C76.8294 23.92 77.9494 23.52 79.3094 23.52C80.6694 23.52 81.7894 23.92 82.6694 24.72C83.5494 25.48 83.9894 26.56 83.9894 27.96ZM83.9894 6.48C83.9894 7.84 83.5494 8.92 82.6694 9.72C81.7894 10.52 80.6694 10.92 79.3094 10.92C77.9494 10.92 76.8294 10.52 75.9494 9.72C75.0694 8.92 74.6294 7.84 74.6294 6.48C74.6294 5.08 75.0694 3.98 75.9494 3.18C76.8294 2.38 77.9494 1.98 79.3094 1.98C80.6694 1.98 81.7894 2.38 82.6694 3.18C83.5494 3.98 83.9894 5.08 83.9894 6.48ZM145.288 32.28C145.288 32.92 144.948 33.24 144.268 33.24C143.108 33.24 141.948 33.18 140.788 33.06C139.628 32.98 138.468 32.94 137.308 32.94C136.148 32.94 134.968 32.98 133.768 33.06C132.608 33.18 131.428 33.24 130.228 33.24C129.988 33.24 129.788 33.14 129.628 32.94C129.508 32.7 129.448 32.48 129.448 32.28C129.448 31.68 129.808 31.38 130.528 31.38C130.848 31.38 131.168 31.4 131.488 31.44C131.848 31.44 132.188 31.44 132.508 31.44C132.988 31.44 133.268 31.3 133.348 31.02C133.428 30.7 133.468 30.34 133.468 29.94V12.12C133.468 11.04 133.428 9.86 133.348 8.58C133.308 7.26 133.068 6.1 132.628 5.1C132.268 4.22 131.808 3.62 131.248 3.3C130.728 2.94 130.008 2.76 129.088 2.76C127.968 2.76 126.848 3.2 125.728 4.08C124.608 4.96 123.708 5.8 123.028 6.6C123.188 7.4 123.268 8.22 123.268 9.06C123.308 9.86 123.328 10.66 123.328 11.46C123.328 14.54 123.328 17.62 123.328 20.7C123.328 23.78 123.328 26.86 123.328 29.94C123.328 30.42 123.408 30.8 123.568 31.08C123.768 31.36 124.128 31.5 124.648 31.5C124.928 31.5 125.188 31.48 125.428 31.44C125.708 31.4 125.988 31.38 126.268 31.38C126.868 31.38 127.168 31.68 127.168 32.28C127.168 32.92 126.828 33.24 126.148 33.24C125.028 33.24 123.888 33.18 122.728 33.06C121.608 32.98 120.468 32.94 119.308 32.94C118.148 32.94 116.988 32.98 115.828 33.06C114.668 33.18 113.508 33.24 112.348 33.24C112.068 33.24 111.868 33.14 111.748 32.94C111.628 32.7 111.568 32.48 111.568 32.28C111.568 31.84 111.748 31.58 112.108 31.5C112.468 31.38 112.868 31.34 113.308 31.38C113.788 31.42 114.148 31.44 114.388 31.44C114.948 31.44 115.288 31.32 115.408 31.08C115.528 30.8 115.588 30.42 115.588 29.94C115.588 26.98 115.568 24.02 115.528 21.06C115.528 18.06 115.528 15.08 115.528 12.12C115.528 11.04 115.488 9.86 115.408 8.58C115.368 7.26 115.128 6.1 114.688 5.1C114.288 4.18 113.808 3.58 113.248 3.3C112.688 3.02 111.928 2.88 110.968 2.88C110.448 2.88 109.808 3.14 109.048 3.66C108.288 4.14 107.568 4.7 106.888 5.34C106.208 5.98 105.688 6.5 105.328 6.9C105.328 10.74 105.328 14.58 105.328 18.42C105.328 22.26 105.328 26.1 105.328 29.94C105.328 30.42 105.408 30.8 105.568 31.08C105.768 31.36 106.128 31.5 106.648 31.5C106.928 31.5 107.208 31.48 107.488 31.44C107.768 31.4 108.048 31.38 108.328 31.38C108.888 31.38 109.168 31.68 109.168 32.28C109.168 32.92 108.848 33.24 108.208 33.24C107.048 33.24 105.888 33.2 104.728 33.12C103.608 33.04 102.468 33 101.308 33C100.108 33 98.9083 33.04 97.7083 33.12C96.5483 33.2 95.3683 33.24 94.1683 33.24C93.8883 33.24 93.6683 33.14 93.5083 32.94C93.3883 32.7 93.3283 32.48 93.3283 32.28C93.3283 31.68 93.6683 31.38 94.3483 31.38C94.6683 31.38 94.9883 31.4 95.3083 31.44C95.6683 31.44 96.0283 31.44 96.3883 31.44C96.9483 31.44 97.2683 31.16 97.3483 30.6C97.4683 30.04 97.5283 29.56 97.5283 29.16C97.5283 25.36 97.5283 21.56 97.5283 17.76C97.5283 13.96 97.5283 10.16 97.5283 6.36C97.5283 5.92 97.4683 5.44 97.3483 4.92C97.2283 4.4 96.8483 4.14 96.2083 4.14C95.7683 4.14 95.3083 4.18 94.8283 4.26C94.3883 4.3 93.9483 4.32 93.5083 4.32C93.2683 4.32 93.0283 4.26 92.7883 4.14C92.5883 3.98 92.4883 3.76 92.4883 3.48C92.4883 3.2 92.5683 3 92.7283 2.88C92.9283 2.76 93.1083 2.68 93.2683 2.64C93.7883 2.48 94.3283 2.38 94.8883 2.34C95.4483 2.3 95.9883 2.24 96.5083 2.16C96.9883 2.04 97.6683 1.86 98.5483 1.62C99.4683 1.38 100.368 1.16 101.248 0.959998C102.128 0.719998 102.728 0.599999 103.048 0.599999C103.528 0.599999 103.868 0.819998 104.068 1.26C104.348 1.7 104.548 2.22 104.668 2.82C104.788 3.38 104.928 3.92 105.088 4.44C106.528 3.24 107.968 2.34 109.408 1.74C110.848 1.1 112.508 0.78 114.388 0.78C115.908 0.78 117.388 1.08 118.828 1.68C120.308 2.28 121.428 3.26 122.188 4.62C123.588 3.38 125.048 2.4 126.568 1.68C128.088 0.959999 129.768 0.599999 131.608 0.599999C134.368 0.599999 136.428 0.979999 137.788 1.74C139.148 2.5 140.048 3.68 140.488 5.28C140.968 6.84 141.208 8.9 141.208 11.46C141.208 14.54 141.208 17.62 141.208 20.7C141.208 23.78 141.208 26.86 141.208 29.94C141.208 30.58 141.368 31 141.688 31.2C142.048 31.4 142.468 31.48 142.948 31.44C143.468 31.4 143.948 31.38 144.388 31.38C144.988 31.38 145.288 31.68 145.288 32.28ZM172.284 17.04C172.284 16.2 172.264 15.2 172.224 14.04C172.184 12.84 172.064 11.62 171.864 10.38C171.704 9.1 171.404 7.92 170.964 6.84C170.564 5.72 169.984 4.82 169.224 4.14C168.464 3.46 167.484 3.12 166.284 3.12C164.684 3.12 163.364 3.58 162.324 4.5C161.324 5.42 160.504 6.58 159.864 7.98V23.64C159.864 24.64 160.044 25.74 160.404 26.94C160.804 28.1 161.404 29.1 162.204 29.94C163.004 30.74 164.004 31.14 165.204 31.14C166.964 31.14 168.324 30.66 169.284 29.7C170.284 28.7 170.984 27.46 171.384 25.98C171.824 24.5 172.084 22.96 172.164 21.36C172.244 19.72 172.284 18.28 172.284 17.04ZM180.504 16.2C180.504 19.44 179.964 22.32 178.884 24.84C177.804 27.32 176.144 29.28 173.904 30.72C171.664 32.12 168.824 32.82 165.384 32.82C164.504 32.82 163.524 32.62 162.444 32.22C161.404 31.78 160.524 31.34 159.804 30.9C159.804 31.78 159.784 32.66 159.744 33.54C159.744 34.46 159.764 35.38 159.804 36.3V41.16C159.804 41.52 159.864 41.88 159.984 42.24C160.144 42.6 160.444 42.78 160.884 42.78C161.204 42.78 161.524 42.76 161.844 42.72C162.204 42.72 162.544 42.72 162.864 42.72C163.424 42.72 163.704 43.02 163.704 43.62C163.704 44.26 163.404 44.58 162.804 44.58C161.684 44.58 160.564 44.54 159.444 44.46C158.324 44.38 157.184 44.34 156.024 44.34C154.864 44.34 153.684 44.38 152.484 44.46C151.284 44.54 150.104 44.58 148.944 44.58C148.664 44.58 148.464 44.46 148.344 44.22C148.224 44.02 148.164 43.82 148.164 43.62C148.164 43.02 148.464 42.72 149.064 42.72C149.384 42.72 149.704 42.72 150.024 42.72C150.344 42.76 150.644 42.78 150.924 42.78C151.364 42.78 151.684 42.62 151.884 42.3C152.084 42.02 152.184 41.68 152.184 41.28C152.184 35.44 152.184 29.6 152.184 23.76C152.224 17.88 152.244 12.02 152.244 6.18C152.244 5.74 152.184 5.26 152.064 4.74C151.944 4.22 151.584 3.96 150.984 3.96C150.584 3.96 150.184 3.98 149.784 4.02C149.424 4.06 149.044 4.08 148.644 4.08C148.404 4.08 148.124 4.04 147.804 3.96C147.524 3.84 147.384 3.62 147.384 3.3C147.384 3.06 147.464 2.88 147.624 2.76C147.784 2.64 147.964 2.56 148.164 2.52C148.604 2.36 149.064 2.26 149.544 2.22C150.024 2.18 150.484 2.12 150.924 2.04C152.964 1.68 154.924 1.2 156.804 0.599999C156.964 0.519997 157.124 0.459997 157.284 0.419997C157.444 0.339998 157.604 0.299999 157.764 0.299999C158.044 0.299999 158.284 0.539998 158.484 1.02C158.724 1.5 158.904 2.02 159.024 2.58C159.184 3.14 159.304 3.54 159.384 3.78C159.944 3.46 160.744 3.1 161.784 2.7C162.824 2.26 163.864 1.88 164.904 1.56C165.984 1.2 166.824 1.02 167.424 1.02C169.464 1.02 171.284 1.46 172.884 2.34C174.484 3.22 175.844 4.4 176.964 5.88C178.124 7.32 179.004 8.94 179.604 10.74C180.204 12.54 180.504 14.36 180.504 16.2ZM202.728 26.64C202.608 24.76 202.528 22.88 202.488 21C202.448 19.08 202.448 17.16 202.488 15.24C200.848 15.52 199.248 16.04 197.688 16.8C196.168 17.52 194.908 18.5 193.908 19.74C192.908 20.98 192.408 22.56 192.408 24.48C192.408 25.28 192.508 26.14 192.708 27.06C192.948 27.98 193.348 28.76 193.908 29.4C194.508 30 195.308 30.3 196.308 30.3C197.028 30.3 197.788 30.1 198.588 29.7C199.388 29.26 200.148 28.76 200.868 28.2C201.628 27.64 202.248 27.12 202.728 26.64ZM215.088 30.18C215.088 30.34 215.008 30.52 214.848 30.72C214.728 30.92 214.608 31.08 214.488 31.2C213.248 32.64 211.648 33.36 209.688 33.36C207.968 33.36 206.588 32.98 205.548 32.22C204.508 31.46 203.708 30.28 203.148 28.68C201.868 30.04 200.488 31.12 199.008 31.92C197.568 32.72 195.868 33.12 193.908 33.12C192.508 33.12 191.088 32.82 189.648 32.22C188.248 31.58 187.068 30.68 186.108 29.52C185.188 28.36 184.728 27.02 184.728 25.5C184.728 23.98 185.108 22.64 185.868 21.48C186.668 20.28 187.668 19.26 188.868 18.42C190.068 17.54 191.288 16.82 192.528 16.26C194.128 15.58 195.768 15.06 197.448 14.7C199.128 14.3 200.808 13.9 202.488 13.5V13.26C202.488 12.54 202.468 11.58 202.428 10.38C202.428 9.14 202.308 7.92 202.068 6.72C201.828 5.48 201.428 4.44 200.868 3.6C200.308 2.72 199.488 2.28 198.408 2.28C197.168 2.28 196.048 2.64 195.048 3.36C194.088 4.08 193.408 5.04 193.008 6.24C192.928 6.6 192.868 6.96 192.828 7.32C192.788 7.64 192.728 7.98 192.648 8.34C192.568 8.98 192.188 9.42 191.507 9.66C190.868 9.86 190.268 9.96 189.708 9.96C189.028 9.96 188.368 9.82 187.728 9.54C187.088 9.22 186.768 8.64 186.768 7.8C186.768 7.48 186.808 7.2 186.888 6.96C187.008 6.68 187.128 6.4 187.248 6.12C187.888 4.6 188.848 3.48 190.128 2.76C191.408 2.04 192.808 1.56 194.328 1.32C195.888 1.08 197.368 0.959998 198.768 0.959998C202.048 0.959998 204.748 1.84 206.868 3.6C208.988 5.36 210.048 7.96 210.048 11.4V20.46C210.008 21.58 209.988 22.74 209.988 23.94C210.028 25.1 210.088 26.26 210.168 27.42C210.248 28.1 210.408 28.76 210.648 29.4C210.888 30 211.428 30.3 212.268 30.3C212.828 30.3 213.288 30.18 213.648 29.94C214.048 29.7 214.408 29.58 214.728 29.58C214.888 29.58 214.988 29.66 215.028 29.82C215.068 29.98 215.088 30.1 215.088 30.18ZM240.644 24.18C240.644 26.06 240.244 27.6 239.444 28.8C238.644 29.96 237.584 30.86 236.264 31.5C234.944 32.14 233.504 32.58 231.944 32.82C230.424 33.06 228.904 33.18 227.384 33.18C226.384 33.18 225.404 33.08 224.444 32.88C223.484 32.68 222.524 32.46 221.564 32.22C221.164 32.14 220.744 32.06 220.304 31.98C219.864 31.86 219.424 31.8 218.984 31.8C218.824 31.24 218.584 30.42 218.264 29.34C217.984 28.22 217.704 27.14 217.424 26.1C217.184 25.02 217.064 24.26 217.064 23.82C217.064 23.38 217.204 23.1 217.484 22.98C217.764 22.86 218.064 22.8 218.384 22.8C218.864 22.8 219.224 22.98 219.464 23.34C220.064 24.18 220.544 25.06 220.904 25.98C221.264 26.9 221.824 27.76 222.584 28.56C223.144 29.16 223.944 29.78 224.984 30.42C226.064 31.02 227.024 31.32 227.864 31.32C229.664 31.32 231.004 30.9 231.884 30.06C232.804 29.22 233.264 27.88 233.264 26.04C233.264 24.8 232.884 23.76 232.124 22.92C231.364 22.08 230.384 21.32 229.184 20.64C228.024 19.96 226.784 19.3 225.464 18.66C224.144 17.98 222.884 17.24 221.684 16.44C220.524 15.64 219.564 14.68 218.804 13.56C218.044 12.4 217.664 11 217.664 9.36C217.664 7.32 218.224 5.66 219.344 4.38C220.464 3.1 221.884 2.16 223.604 1.56C225.364 0.959998 227.124 0.659998 228.884 0.659998C229.684 0.659998 230.464 0.719998 231.224 0.839999C231.984 0.959998 232.744 1.18 233.504 1.5C233.864 1.62 234.344 1.78 234.944 1.98C235.584 2.14 236.084 2.22 236.444 2.22C236.964 2.22 237.464 2.16 237.944 2.04C238.024 3.16 238.144 4.28 238.304 5.4C238.504 6.52 238.624 7.64 238.664 8.76V8.94C238.704 9.34 238.584 9.68 238.304 9.96C238.064 10.2 237.764 10.32 237.404 10.32C237.004 10.32 236.704 10.24 236.504 10.08C236.344 9.92 236.184 9.68 236.024 9.36C235.504 8.2 234.984 7.1 234.464 6.06C233.984 4.98 233.324 4.1 232.484 3.42C231.684 2.74 230.524 2.4 229.004 2.4C227.404 2.4 226.224 3.02 225.464 4.26C224.704 5.5 224.324 6.82 224.324 8.22C224.324 9.34 224.744 10.3 225.584 11.1C226.424 11.9 227.284 12.54 228.164 13.02C229.244 13.58 230.484 14.2 231.884 14.88C233.324 15.56 234.704 16.34 236.024 17.22C237.344 18.1 238.444 19.12 239.324 20.28C240.204 21.4 240.644 22.7 240.644 24.18ZM267.422 24.18C267.422 26.06 267.022 27.6 266.222 28.8C265.422 29.96 264.362 30.86 263.042 31.5C261.722 32.14 260.282 32.58 258.722 32.82C257.202 33.06 255.682 33.18 254.162 33.18C253.162 33.18 252.182 33.08 251.222 32.88C250.262 32.68 249.302 32.46 248.342 32.22C247.942 32.14 247.522 32.06 247.082 31.98C246.642 31.86 246.202 31.8 245.762 31.8C245.602 31.24 245.362 30.42 245.042 29.34C244.762 28.22 244.482 27.14 244.202 26.1C243.962 25.02 243.842 24.26 243.842 23.82C243.842 23.38 243.982 23.1 244.262 22.98C244.542 22.86 244.842 22.8 245.162 22.8C245.642 22.8 246.002 22.98 246.242 23.34C246.842 24.18 247.322 25.06 247.682 25.98C248.042 26.9 248.602 27.76 249.362 28.56C249.922 29.16 250.722 29.78 251.762 30.42C252.842 31.02 253.802 31.32 254.642 31.32C256.442 31.32 257.782 30.9 258.662 30.06C259.582 29.22 260.042 27.88 260.042 26.04C260.042 24.8 259.662 23.76 258.902 22.92C258.142 22.08 257.162 21.32 255.962 20.64C254.802 19.96 253.562 19.3 252.242 18.66C250.922 17.98 249.662 17.24 248.462 16.44C247.302 15.64 246.342 14.68 245.582 13.56C244.822 12.4 244.442 11 244.442 9.36C244.442 7.32 245.002 5.66 246.122 4.38C247.242 3.1 248.662 2.16 250.382 1.56C252.142 0.959998 253.902 0.659998 255.662 0.659998C256.462 0.659998 257.242 0.719998 258.002 0.839999C258.762 0.959998 259.522 1.18 260.282 1.5C260.642 1.62 261.122 1.78 261.722 1.98C262.362 2.14 262.862 2.22 263.222 2.22C263.742 2.22 264.242 2.16 264.722 2.04C264.802 3.16 264.922 4.28 265.082 5.4C265.282 6.52 265.402 7.64 265.442 8.76V8.94C265.482 9.34 265.362 9.68 265.082 9.96C264.842 10.2 264.542 10.32 264.182 10.32C263.782 10.32 263.482 10.24 263.282 10.08C263.122 9.92 262.962 9.68 262.802 9.36C262.282 8.2 261.762 7.1 261.242 6.06C260.762 4.98 260.102 4.1 259.262 3.42C258.462 2.74 257.302 2.4 255.782 2.4C254.182 2.4 253.002 3.02 252.242 4.26C251.482 5.5 251.102 6.82 251.102 8.22C251.102 9.34 251.522 10.3 252.362 11.1C253.202 11.9 254.062 12.54 254.942 13.02C256.022 13.58 257.262 14.2 258.662 14.88C260.102 15.56 261.482 16.34 262.802 17.22C264.122 18.1 265.222 19.12 266.102 20.28C266.982 21.4 267.422 22.7 267.422 24.18Z" fill="white"/>
</svg>