<svg width="473" height="100" viewBox="0 0 473 100" fill="none" xmlns="http://www.w3.org/2000/svg">
    <path d="M212.764 0.664062L199.129 14.8336L185.494 0.664062H143.788L134.297 76.8585H164.106L186.564 55.0696H211.694L234.152 76.8585H263.961L254.47 0.664062H212.764ZM238.028 67.5013L215.437 45.7124H182.821L160.23 67.5013H144.991L152.076 9.8876H181.484L199.129 28.3347L216.774 10.0213H246.182L253.267 67.635L238.028 67.5013Z" fill="#B7CACF"/>
    <path d="M44.9386 14.6495V24.8539H30.9531V16.6995C30.9531 14.8014 30.6418 13.5638 30.0192 12.9868C29.3815 12.4097 28.1211 12.1212 26.2381 12.1212H19.4732C17.5902 12.1212 16.3375 12.4097 15.7149 12.9868C15.0771 13.5638 14.7582 14.8014 14.7582 16.6995V61.3209C14.7582 63.2039 15.0771 64.4339 15.7149 65.0109C16.3375 65.5879 17.5902 65.8765 19.4732 65.8765H26.2381C28.1211 65.8765 29.3815 65.5879 30.0192 65.0109C30.6418 64.4339 30.9531 63.2039 30.9531 61.3209V53.1438H44.9386V63.5304C44.9386 72.7477 40.011 77.3564 30.1559 77.3564H15.2365C5.4877 77.3564 0.613281 72.7477 0.613281 63.5304V14.6495C0.613281 5.32588 5.4877 0.664062 15.2365 0.664062H30.1559C40.011 0.664062 44.9386 5.32588 44.9386 14.6495ZM70.4017 0.664062H87.2116C96.9605 0.664062 101.835 5.32588 101.835 14.6495V63.5304C101.835 72.7477 96.9605 77.3564 87.2116 77.3564H70.4017C60.7592 77.3564 55.9379 72.7477 55.9379 63.5304V14.6495C55.9379 5.32588 60.7592 0.664062 70.4017 0.664062ZM87.8494 61.4804V16.5401C87.8494 14.6419 87.5305 13.3816 86.8927 12.759C86.2701 12.1364 85.0174 11.8251 83.1344 11.8251H74.4789C72.596 11.8251 71.366 12.1364 70.7889 12.759C70.2119 13.3816 69.9234 14.6419 69.9234 16.5401V61.4804C69.9234 63.3633 70.2119 64.6237 70.7889 65.2615C71.366 65.8841 72.596 66.1954 74.4789 66.1954H83.1344C85.0174 66.1954 86.2701 65.8841 86.8927 65.2615C87.5305 64.6237 87.8494 63.3633 87.8494 61.4804ZM128.872 30.9811H112.996V11.6657H128.872V30.9811ZM128.872 66.3548H112.996V47.0166H128.872V66.3548Z" fill="#B7CACF"/>
    <path d="M292.469 0.664062H297.981C307.517 0.664062 312.285 5.32588 312.285 14.6495V63.5304C312.285 72.7477 307.517 77.3564 297.981 77.3564H292.469C287.336 77.3564 284.094 75.314 282.743 71.2292V99.0407H268.598V0.664062H282.743V6.79125C284.094 2.70646 287.336 0.664062 292.469 0.664062ZM298.14 61.3209V16.6995C298.14 14.8014 297.821 13.5638 297.184 12.9868C296.561 12.4097 295.308 12.1212 293.425 12.1212H287.913C286.03 12.1212 284.694 12.5464 283.904 13.3968C283.13 14.2319 282.743 15.6442 282.743 17.6334V60.387C282.743 62.3763 283.13 63.7885 283.904 64.6237C284.694 65.4589 286.03 65.8765 287.913 65.8765H293.425C295.308 65.8765 296.561 65.5879 297.184 65.0109C297.821 64.4339 298.14 63.2039 298.14 61.3209ZM353.763 6.79125V0.664062H367.908V77.3564H353.763V71.2292C352.412 75.314 349.17 77.3564 344.037 77.3564H338.366C328.936 77.3564 324.221 72.7477 324.221 63.5304V14.6495C324.221 5.32588 328.936 0.664062 338.366 0.664062H344.037C349.17 0.664062 352.412 2.70646 353.763 6.79125ZM343.081 65.8765H348.593C350.476 65.8765 351.812 65.4589 352.602 64.6237C353.376 63.7885 353.763 62.3763 353.763 60.387V17.6334C353.763 15.6442 353.376 14.2319 352.602 13.3968C351.812 12.5464 350.476 12.1212 348.593 12.1212H343.081C341.198 12.1212 339.945 12.4097 339.322 12.9868C338.684 13.5638 338.366 14.8014 338.366 16.6995V61.3209C338.366 63.2039 338.684 64.4339 339.322 65.0109C339.945 65.5879 341.198 65.8765 343.081 65.8765ZM407.359 61.9587V49.226C407.359 47.3431 407.048 46.1131 406.425 45.536C405.803 44.959 404.542 44.6705 402.644 44.6705H394.626C384.893 44.6705 380.026 40.0618 380.026 30.8444V14.6495C380.026 5.32588 384.893 0.664062 394.626 0.664062H406.106C415.961 0.664062 420.889 5.32588 420.889 14.6495V22.0295H407.063V16.0617C407.063 14.1788 406.744 12.9488 406.106 12.3718C405.484 11.7947 404.231 11.5062 402.348 11.5062H398.567C396.684 11.5062 395.424 11.7947 394.786 12.3718C394.163 12.9488 393.852 14.1788 393.852 16.0617V29.2728C393.852 31.1557 394.163 32.3857 394.786 32.9628C395.424 33.5398 396.684 33.8283 398.567 33.8283H406.744C416.387 33.8283 421.208 38.4901 421.208 47.8138V63.5304C421.208 72.7477 416.333 77.3564 406.585 77.3564H394.945C385.212 77.3564 380.345 72.7477 380.345 63.5304V55.991H394.171V61.9587C394.171 63.8417 394.482 65.0717 395.105 65.6487C395.742 66.2257 397.003 66.5142 398.886 66.5142H402.644C404.542 66.5142 405.803 66.2257 406.425 65.6487C407.048 65.0717 407.359 63.8417 407.359 61.9587ZM458.909 61.9587V49.226C458.909 47.3431 458.598 46.1131 457.976 45.536C457.353 44.959 456.093 44.6705 454.194 44.6705H446.177C436.443 44.6705 431.576 40.0618 431.576 30.8444V14.6495C431.576 5.32588 436.443 0.664062 446.177 0.664062H457.657C467.512 0.664062 472.439 5.32588 472.439 14.6495V22.0295H458.613V16.0617C458.613 14.1788 458.294 12.9488 457.657 12.3718C457.034 11.7947 455.781 11.5062 453.898 11.5062H450.117C448.234 11.5062 446.974 11.7947 446.336 12.3718C445.714 12.9488 445.402 14.1788 445.402 16.0617V29.2728C445.402 31.1557 445.714 32.3857 446.336 32.9628C446.974 33.5398 448.234 33.8283 450.117 33.8283H458.294C467.937 33.8283 472.758 38.4901 472.758 47.8138V63.5304C472.758 72.7477 467.884 77.3564 458.135 77.3564H446.496C436.762 77.3564 431.895 72.7477 431.895 63.5304V55.991H445.721V61.9587C445.721 63.8417 446.032 65.0717 446.655 65.6487C447.293 66.2257 448.553 66.5142 450.436 66.5142H454.194C456.093 66.5142 457.353 66.2257 457.976 65.6487C458.598 65.0717 458.909 63.8417 458.909 61.9587Z" fill="#B7CACF"/>
    <path d="M215.582 29.2681L227.87 16.9802L234.486 23.5967L222.199 35.8846L215.582 29.2681Z" fill="#46D45C"/>
    <path d="M224.41 37.9961L236.698 25.7082L243.315 32.3248L231.027 44.6126L224.41 37.9961Z" fill="#DA3232"/>
    <path d="M170.92 20.0469H161.563V26.7306H154.879V36.0878H161.563V42.7715H170.92V36.0878H177.604V26.7306H170.92V20.0469Z" fill="#6C979C"/>
</svg>
